PathFileType	4	(X/Y/Z)	 s02c0201.trc
DataRate	CameraRate	NumFrames	NumMarkers	Units	OrigDataRate	OrigDataStartFrame	OrigNumFrames
200	200	4	51	mm	200	1251	2000
Frame#	Time	racr			lacr			c7			jug			rlel			rdr			llel			ldr			s2			lic			ric			lasi			rasi			rpsi			lpsi			rgt			lgt			rth1			rth2			rth3			rth4			rlfc			rmfc			rsh1			rsh2			rsh3			rsh4			rlmal			rmmal			rcal			rtoe			rmt5			rmt1			lth1			lth2			lth4			lth3			llfc			lmfc			lsh1			lsh2			lsh3			lsh4			llmal			lmmal			lcal			ltoe			lmt5			SBIKE			LBIKE			RBIKE			
		X1	Y1	Z1	X2	Y2	Z2	X3	Y3	Z3	X4	Y4	Z4	X5	Y5	Z5	X6	Y6	Z6	X7	Y7	Z7	X8	Y8	Z8	X9	Y9	Z9	X10	Y10	Z10	X11	Y11	Z11	X12	Y12	Z12	X13	Y13	Z13	X14	Y14	Z14	X15	Y15	Z15	X16	Y16	Z16	X17	Y17	Z17	X18	Y18	Z18	X19	Y19	Z19	X20	Y20	Z20	X21	Y21	Z21	X22	Y22	Z22	X23	Y23	Z23	X24	Y24	Z24	X25	Y25	Z25	X26	Y26	Z26	X27	Y27	Z27	X28	Y28	Z28	X29	Y29	Z29	X30	Y30	Z30	X31	Y31	Z31	X32	Y32	Z32	X33	Y33	Z33	X34	Y34	Z34	X35	Y35	Z35	X36	Y36	Z36	X37	Y37	Z37	X38	Y38	Z38	X39	Y39	Z39	X40	Y40	Z40	X41	Y41	Z41	X42	Y42	Z42	X43	Y43	Z43	X44	Y44	Z44	X45	Y45	Z45	X46	Y46	Z46	X47	Y47	Z47	X48	Y48	Z48	X49	Y49	Z49	X50	Y50	Z50	X51	Y51	Z51	
1251	6.2550	579.682664	1231.400649	-199.114616	543.918272	1234.863143	-520.978554	539.133285	1281.155555	-365.136395	483.932944	1149.939093	-356.843729	560.178900	1013.076455	-41.564656	707.616690	886.413486	-106.807575	513.468197	971.690136	-631.221635	694.157680	892.629396	-524.506158	11.997536	1116.553466	-295.330548	123.075305	1129.925441	-449.352444	156.725750	1122.594833	-166.125602	164.909634	1102.211276	-427.314382	202.395973	1092.102394	-197.281552	47.837309	1165.810126	-249.485654	41.838301	1184.670526	-331.324545	120.322032	1024.717769	-128.641327	92.125809	1059.842469	-490.049345	186.481045	946.789319	-117.079556	242.797317	878.350205	-119.704435	261.370616	796.368164	-100.792186	269.946137	889.715902	-143.909165	297.301461	662.538883	-141.786769	286.107045	646.159040	-247.633659	282.361200	558.884154	-120.014576	287.015620	471.108851	-135.872899	251.652960	392.528310	-130.214337	299.576094	471.121413	-173.340801	219.931783	278.948386	-136.163411	227.246972	295.303176	-214.892983	135.800796	263.759465	-173.360330	388.838290	126.688536	-190.792791	288.057640	159.943924	-124.373940	312.628754	165.468656	-232.632183	226.266947	1033.989063	-497.360432	311.496282	1031.753279	-491.154124	320.040170	1061.171623	-469.575996	387.736514	985.912703	-497.495265	486.557480	951.258425	-480.556721	490.489817	920.950614	-367.560519	451.344242	858.914043	-493.305604	417.162280	781.941899	-476.363454	346.563738	725.934747	-481.383889	434.847335	771.491199	-440.795803	262.551043	643.430388	-469.942745	282.818465	635.235043	-391.504444	186.000470	622.581037	-429.836048	434.445591	477.540002	-434.898155	331.584182	508.030125	-494.958681	-162.199655	861.049577	-308.883114	37.427920	87.248408	-514.175023	34.024898	83.327338	-114.033938	
1252	6.2600	581.082687	1230.211954	-201.980828	542.203502	1234.493682	-523.260279	538.948418	1280.427933	-367.505334	483.765713	1149.218481	-359.010596	560.554866	1014.180426	-41.725011	707.539371	886.534616	-106.496846	512.804501	970.719316	-631.631798	693.977837	892.608283	-524.637341	11.599959	1117.736118	-294.250442	122.561143	1131.401405	-448.525979	156.815774	1123.386493	-165.418768	164.432698	1103.773336	-426.673909	201.895319	1092.467906	-196.640376	47.638842	1167.317824	-248.130580	41.753943	1186.341455	-330.004176	119.765867	1024.906803	-127.812426	91.720570	1061.404178	-488.986241	185.772181	947.027470	-116.870376	242.677481	878.870915	-119.318456	261.695027	796.949106	-100.858246	269.793860	890.485466	-143.618496	298.449918	663.397165	-142.329206	286.810933	647.446903	-248.430289	281.679292	559.990326	-121.098735	283.817804	472.097167	-137.359729	246.591056	394.565354	-131.455501	296.281680	472.062391	-174.798565	211.215695	281.899154	-137.337198	219.543432	298.046397	-216.227813	127.249284	267.723927	-175.516893	378.297911	127.263428	-190.039522	277.358319	162.033285	-124.798584	303.105095	166.600428	-232.732569	225.503396	1035.058642	-497.677032	310.592138	1032.502519	-491.628439	319.374264	1062.053187	-470.297377	386.600428	986.389009	-498.072552	485.550069	952.732461	-481.471170	490.727320	922.773032	-368.210835	451.901423	860.011362	-494.517410	419.892089	782.286744	-477.442527	350.457516	724.889366	-482.150453	438.099578	772.040829	-441.999921	268.142502	639.343436	-470.223506	288.921816	632.092851	-392.121693	193.027205	616.832692	-429.309970	444.526104	479.195069	-435.265897	340.887086	506.461425	-495.251905	-162.261037	861.029306	-308.893192	37.405043	87.251040	-514.172990	34.069346	83.315236	-113.994775	
1253	6.2650	582.282598	1228.659556	-204.748321	540.451549	1234.020882	-525.277232	538.706238	1279.569798	-369.860724	483.252624	1148.482716	-361.264242	560.815701	1015.172418	-41.886470	707.542934	886.663878	-106.199759	512.030657	969.762972	-631.936365	693.751205	892.666238	-524.726751	11.221975	1118.528971	-293.665262	122.037904	1132.697341	-447.673922	156.578760	1124.101949	-164.736116	164.110332	1105.317293	-426.430188	201.229514	1092.871985	-196.313713	47.370853	1168.809293	-246.940422	41.652461	1187.901205	-328.851329	119.215474	1025.203636	-126.830665	91.294293	1062.645224	-487.881685	185.201655	947.397777	-116.804280	242.824949	879.862318	-119.122804	262.632607	797.837611	-101.094835	269.850079	891.675229	-143.419451	299.652409	664.991523	-143.265048	288.325173	649.201801	-249.306136	281.546871	561.548548	-122.252241	281.248898	473.708059	-138.831828	241.953051	397.005836	-133.002291	293.437104	473.402155	-176.339691	202.703829	285.523352	-138.788040	212.173627	301.531657	-217.782585	118.763760	272.651136	-178.081207	367.760572	128.432103	-188.963025	266.679720	164.898128	-125.346515	293.615691	168.341899	-233.035345	222.744072	1033.851353	-492.676198	309.683231	1032.538202	-492.266628	318.764264	1062.303290	-471.306811	385.284421	985.792616	-498.631389	484.299303	952.794045	-482.407549	491.092437	923.130853	-369.184501	452.181595	859.812294	-495.523069	422.043337	781.192273	-478.627891	353.602023	722.417217	-483.078941	440.830017	771.182343	-443.516346	273.475006	634.375136	-470.800128	294.404865	628.176557	-392.921669	198.168214	609.776628	-430.308882	454.452473	480.515706	-435.237250	349.872439	504.042038	-495.657178	-162.219766	860.478142	-310.211606	37.418417	87.282552	-514.157834	34.142288	83.295849	-113.913410	
1254	6.2700	583.367203	1227.069652	-207.433809	538.616069	1233.477836	-527.275943	538.380195	1278.658439	-372.037894	482.654988	1147.694544	-363.342652	560.961183	1015.945909	-42.182907	707.587384	886.723401	-105.918789	511.235482	968.633169	-632.292120	693.491091	892.800866	-524.746116	11.760206	1119.076965	-294.599316	121.519997	1133.968896	-447.003694	156.142326	1124.751076	-164.013263	163.701072	1106.697807	-425.967560	200.468498	1093.271619	-195.961125	47.050861	1170.403159	-245.875409	41.203847	1189.655113	-327.815268	118.553620	1025.801153	-125.838325	90.961985	1063.662330	-486.782651	184.906341	947.684601	-116.973624	243.305290	881.007837	-119.339505	264.029867	799.168870	-101.467983	270.203967	893.193899	-143.435763	301.853256	666.949726	-144.371902	290.506579	651.524334	-250.282061	281.887660	563.481566	-123.569329	278.968079	475.630774	-140.612704	237.767330	400.092465	-134.643153	291.223120	475.204123	-177.909696	194.640126	289.739149	-140.652868	205.074644	305.641547	-219.553368	110.816823	278.119604	-180.756987	357.414842	130.063148	-187.892196	256.320023	168.489971	-125.954907	284.168687	170.593134	-233.553913	223.736091	1035.691201	-497.875194	308.782469	1031.788310	-492.897019	318.230587	1061.729339	-472.353403	383.909549	984.288693	-499.040215	482.898975	951.514594	-483.318767	491.109694	922.158480	-370.208275	452.164411	858.156837	-496.472587	423.715214	778.834797	-480.066897	356.331567	718.736805	-484.013219	443.093853	768.900815	-445.179521	278.473189	628.222136	-471.350019	299.392882	623.046620	-393.892667	203.245470	601.577778	-431.004173	464.115585	481.755770	-435.497345	358.676405	500.927941	-496.362509	-162.298398	860.357659	-310.608887	37.403998	87.300870	-514.151712	34.173344	83.285331	-113.879596	
